<svg version="1.1" viewBox="0.0 0.0 960.0 540.0" fill="none" stroke="none" stroke-linecap="square" stroke-miterlimit="10" xmlns:xlink="http://www.w3.org/1999/xlink" xmlns="http://www.w3.org/2000/svg"><clipPath id="p.0"><path d="m0 0l960.0 0l0 540.0l-960.0 0l0 -540.0z" clip-rule="nonzero"/></clipPath><g clip-path="url(#p.0)"><path fill="#ffffff" d="m0 0l960.0 0l0 540.0l-960.0 0z" fill-rule="evenodd"/><path fill="#000000" fill-opacity="0.0" d="m178.1916 337.25198l240.12599 0l0 82.677155l-240.12599 0z" fill-rule="evenodd"/><path fill="#6aa84f" d="m189.83223 354.37198l3.515625 0l0 25.03125l-0.3125 3.96875l-3.203125 0l0 -29.0zm17.3125 18.625l0 0.390625q0 2.234375 -0.53125 4.125q-0.53125 1.890625 -1.546875 3.296875q-1.015625 1.390625 -2.5 2.171875q-1.46875 0.765625 -3.375 0.765625q-1.9375 0 -3.40625 -0.671875q-1.453125 -0.671875 -2.453125 -1.921875q-1.0 -1.265625 -1.609375 -3.0625q-0.59375 -1.796875 -0.8125 -4.046875l0 -1.734375q0.21875 -2.265625 0.8125 -4.046875q0.609375 -1.796875 1.609375 -3.0625q1.0 -1.28125 2.453125 -1.953125q1.453125 -0.671875 3.375 -0.671875q1.921875 0 3.40625 0.75q1.5 0.734375 2.5 2.125q1.015625 1.375 1.546875 3.296875q0.53125 1.90625 0.53125 4.25zm-3.515625 0.390625l0 -0.390625q0 -1.53125 -0.28125 -2.875q-0.28125 -1.359375 -0.90625 -2.390625q-0.625 -1.03125 -1.640625 -1.625q-1.015625 -0.59375 -2.515625 -0.59375q-1.3125 0 -2.296875 0.453125q-0.96875 0.453125 -1.65625 1.21875q-0.671875 0.765625 -1.09375 1.734375q-0.421875 0.96875 -0.625 2.015625l0 4.546875q0.296875 1.328125 0.984375 2.546875q0.6875 1.203125 1.84375 1.984375q1.171875 0.78125 2.890625 0.78125q1.40625 0 2.421875 -0.578125q1.015625 -0.578125 1.640625 -1.59375q0.640625 -1.03125 0.9375 -2.359375q0.296875 -1.34375 0.296875 -2.875zm21.159515 -10.4375l3.171875 0l0 19.984375q0 2.703125 -1.09375 4.609375q-1.09375 1.90625 -3.046875 2.890625q-1.953125 1.0 -4.5 1.0q-1.0625 0 -2.484375 -0.328125q-1.421875 -0.328125 -2.796875 -1.125q-1.359375 -0.78125 -2.296875 -2.09375l1.84375 -2.078125q1.28125 1.546875 2.6875 2.140625q1.40625 0.609375 2.78125 0.609375q1.65625 0 2.859375 -0.625q1.21875 -0.625 1.890625 -1.84375q0.671875 -1.203125 0.671875 -2.984375l0 -15.671875l0.3125 -4.484375zm-14.0625 10.4375l0 -0.390625q0 -2.34375 0.546875 -4.25q0.5625 -1.921875 1.609375 -3.296875q1.0625 -1.390625 2.546875 -2.125q1.484375 -0.75 3.359375 -0.75q1.921875 0 3.359375 0.671875q1.453125 0.671875 2.453125 1.953125q1.015625 1.265625 1.59375 3.0625q0.59375 1.78125 0.828125 4.046875l0 1.734375q-0.21875 2.25 -0.8125 4.046875q-0.59375 1.796875 -1.609375 3.0625q-1.0 1.25 -2.453125 1.921875q-1.453125 0.671875 -3.390625 0.671875q-1.84375 0 -3.328125 -0.765625q-1.46875 -0.78125 -2.53125 -2.171875q-1.0625 -1.40625 -1.625 -3.296875q-0.546875 -1.890625 -0.546875 -4.125zm3.5 -0.390625l0 0.390625q0 1.53125 0.3125 2.875q0.3125 1.328125 0.953125 2.359375q0.65625 1.015625 1.671875 1.59375q1.015625 0.578125 2.4375 0.578125q1.734375 0 2.859375 -0.734375q1.140625 -0.75 1.8125 -1.953125q0.671875 -1.203125 1.046875 -2.625l0 -4.546875q-0.203125 -1.046875 -0.640625 -2.015625q-0.421875 -0.96875 -1.09375 -1.734375q-0.65625 -0.765625 -1.640625 -1.21875q-0.984375 -0.453125 -2.3125 -0.453125q-1.421875 0 -2.453125 0.59375q-1.03125 0.59375 -1.6875 1.625q-0.640625 1.03125 -0.953125 2.390625q-0.3125 1.34375 -0.3125 2.875zm22.534515 -6.84375l0 17.21875l-3.5 0l0 -20.421875l3.40625 0l0.09375 3.203125zm6.375 -3.3125l-0.015625 3.234375q-0.4375 -0.09375 -0.828125 -0.109375q-0.375 -0.03125 -0.875 -0.03125q-1.203125 0 -2.140625 0.375q-0.921875 0.375 -1.5625 1.0625q-0.640625 0.671875 -1.015625 1.609375q-0.359375 0.9375 -0.46875 2.046875l-0.984375 0.5625q0 -1.84375 0.359375 -3.46875q0.375 -1.625 1.140625 -2.875q0.78125 -1.265625 1.984375 -1.96875q1.203125 -0.703125 2.859375 -0.703125q0.375 0 0.859375 0.09375q0.5 0.078125 0.6875 0.171875zm11.349991 20.90625q-2.140625 0 -3.875 -0.71875q-1.71875 -0.734375 -2.953125 -2.046875q-1.234375 -1.328125 -1.90625 -3.140625q-0.65625 -1.8125 -0.65625 -3.96875l0 -0.78125q0 -2.5 0.734375 -4.453125q0.75 -1.953125 2.0 -3.3125q1.265625 -1.359375 2.875 -2.046875q1.609375 -0.703125 3.328125 -0.703125q2.1875 0 3.78125 0.75q1.59375 0.75 2.609375 2.109375q1.015625 1.34375 1.5 3.171875q0.5 1.8125 0.5 3.96875l0 1.5625l-15.25 0l0 -2.84375l11.765625 0l0 -0.265625q-0.078125 -1.359375 -0.5625 -2.640625q-0.484375 -1.28125 -1.53125 -2.109375q-1.03125 -0.84375 -2.8125 -0.84375q-1.1875 0 -2.1875 0.5q-1.0 0.5 -1.71875 1.484375q-0.71875 0.984375 -1.125 2.40625q-0.390625 1.40625 -0.390625 3.265625l0 0.78125q0 1.453125 0.40625 2.734375q0.40625 1.265625 1.1875 2.234375q0.78125 0.96875 1.90625 1.515625q1.125 0.546875 2.5625 0.546875q1.84375 0 3.125 -0.75q1.28125 -0.765625 2.25 -2.03125l2.109375 1.6875q-0.65625 1.0 -1.671875 1.90625q-1.015625 0.90625 -2.5 1.46875q-1.484375 0.5625 -3.5 0.5625zm20.498383 0q-2.140625 0 -3.875 -0.71875q-1.71875 -0.734375 -2.953125 -2.046875q-1.234375 -1.328125 -1.90625 -3.140625q-0.65625 -1.8125 -0.65625 -3.96875l0 -0.78125q0 -2.5 0.734375 -4.453125q0.75 -1.953125 2.0 -3.3125q1.265625 -1.359375 2.875 -2.046875q1.609375 -0.703125 3.328125 -0.703125q2.1875 0 3.78125 0.75q1.59375 0.75 2.609375 2.109375q1.015625 1.34375 1.5 3.171875q0.5 1.8125 0.5 3.96875l0 1.5625l-15.25 0l0 -2.84375l11.765625 0l0 -0.265625q-0.078125 -1.359375 -0.5625 -2.640625q-0.484375 -1.28125 -1.53125 -2.109375q-1.03125 -0.84375 -2.8125 -0.84375q-1.1875 0 -2.1875 0.5q-1.0 0.5 -1.71875 1.484375q-0.71875 0.984375 -1.125 2.40625q-0.390625 1.40625 -0.390625 3.265625l0 0.78125q0 1.453125 0.40625 2.734375q0.40625 1.265625 1.1875 2.234375q0.78125 0.96875 1.90625 1.515625q1.125 0.546875 2.5625 0.546875q1.84375 0 3.125 -0.75q1.28125 -0.765625 2.25 -2.03125l2.109375 1.6875q-0.65625 1.0 -1.671875 1.90625q-1.015625 0.90625 -2.5 1.46875q-1.484375 0.5625 -3.5 0.5625zm15.514008 -16.4375l0 16.0625l-3.5 0l0 -20.421875l3.3125 0l0.1875 4.359375zm-0.828125 5.078125l-1.453125 -0.0625q0.015625 -2.09375 0.609375 -3.875q0.609375 -1.78125 1.703125 -3.09375q1.09375 -1.328125 2.609375 -2.046875q1.53125 -0.734375 3.375 -0.734375q1.515625 0 2.71875 0.40625q1.203125 0.40625 2.0625 1.296875q0.859375 0.875 1.3125 2.28125q0.453125 1.40625 0.453125 3.4375l0 13.375l-3.5 0l0 -13.421875q0 -1.609375 -0.484375 -2.578125q-0.46875 -0.96875 -1.375 -1.40625q-0.90625 -0.453125 -2.21875 -0.453125q-1.3125 0 -2.375 0.546875q-1.0625 0.546875 -1.828125 1.515625q-0.765625 0.96875 -1.1875 2.203125q-0.421875 1.234375 -0.421875 2.609375z" fill-rule="nonzero"/><path fill="#6aa84f" d="m323.09058 380.12198l0.875 0q-0.09375 1.046875 -0.5625 1.8125q-0.46875 0.75 -1.296875 1.171875q-0.8125 0.40625 -1.96875 0.40625q-0.875 0 -1.609375 -0.328125q-0.71875 -0.34375 -1.234375 -0.96875q-0.515625 -0.625 -0.796875 -1.484375q-0.28125 -0.859375 -0.28125 -1.921875l0 -1.296875q0 -1.0625 0.28125 -1.921875q0.28125 -0.859375 0.796875 -1.484375q0.53125 -0.625 1.265625 -0.953125q0.734375 -0.34375 1.640625 -0.34375q1.125 0 1.921875 0.40625q0.8125 0.40625 1.28125 1.171875q0.46875 0.75 0.5625 1.828125l-0.875 0q-0.09375 -0.859375 -0.4375 -1.4375q-0.34375 -0.59375 -0.953125 -0.890625q-0.59375 -0.3125 -1.5 -0.3125q-0.71875 0 -1.296875 0.28125q-0.578125 0.265625 -0.984375 0.796875q-0.390625 0.515625 -0.609375 1.234375q-0.203125 0.71875 -0.203125 1.609375l0 1.3125q0 0.859375 0.203125 1.578125q0.203125 0.71875 0.578125 1.25q0.390625 0.53125 0.953125 0.828125q0.578125 0.296875 1.296875 0.296875q0.9375 0 1.546875 -0.296875q0.609375 -0.296875 0.953125 -0.890625q0.34375 -0.59375 0.453125 -1.453125zm10.0336 -2.5l0 0.75l-6.328125 0l0 -0.75l6.328125 0zm-6.125 -4.671875l0 10.421875l-0.875 0l0 -10.421875l0.875 0zm6.828125 0l0 10.421875l-0.875 0l0 -10.421875l0.875 0zm3.7361145 0l0 10.421875l-0.875 0l0 -10.421875l0.875 0zm8.860504 9.65625l0 0.765625l-5.390625 0l0 -0.765625l5.390625 0zm-5.125 -9.65625l0 10.421875l-0.890625 0l0 -10.421875l0.890625 0zm13.307007 9.65625l0 0.765625l-5.859375 0l0 -0.765625l5.859375 0zm-5.59375 -9.65625l0 10.421875l-0.875 0l0 -10.421875l0.875 0zm4.875 4.671875l0 0.75l-5.140625 0l0 -0.75l5.140625 0zm0.6875 -4.671875l0 0.765625l-5.828125 0l0 -0.765625l5.828125 0z" fill-rule="nonzero"/></g></svg>